<?xml version="1.0" encoding="utf-8"?>
<!-- Generator: Adobe Illustrator 16.0.0, SVG Export Plug-In . SVG Version: 6.00 Build 0)  -->
<!DOCTYPE svg PUBLIC "-//W3C//DTD SVG 1.1//EN" "http://www.w3.org/Graphics/SVG/1.1/DTD/svg11.dtd">
<svg version="1.1" id="Layer_1" xmlns="http://www.w3.org/2000/svg" xmlns:xlink="http://www.w3.org/1999/xlink" x="0px" y="0px"
	 width="1280px" height="800px" viewBox="0 0 1280 800" enable-background="new 0 0 1280 800" xml:space="preserve">
<path fill-rule="evenodd" clip-rule="evenodd" fill="#008A87" d="M1131.989,719.567c-63.151,0-126.303,0-189.453,0
	c0.044-0.468,0.127-0.937,0.127-1.404c0.006-24.862,0.007-49.726-0.003-74.589c0-0.726-0.127-1.45-0.211-2.361
	c-1.366,0-2.579-0.072-3.782,0.011c-10.157,0.708-20.309,1.521-30.471,2.153c-13.464,0.839-26.935,1.572-40.404,2.299
	c-11.214,0.605-22.43,1.162-33.647,1.691c-12.729,0.601-25.46,1.182-38.193,1.705c-14.813,0.609-29.626,1.205-44.443,1.698
	c-18.788,0.627-37.578,1.226-56.371,1.688c-19.177,0.473-38.357,0.947-57.539,1.093c-26.846,0.204-53.695,0.192-80.542,0.106
	c-20.698-0.066-41.401-0.17-62.093-0.656c-20.486-0.48-40.961-1.424-61.438-2.244c-7.07-0.282-14.134-0.743-21.193-1.228
	c-9.59-0.658-19.175-1.394-28.758-2.141c-7.229-0.564-14.462-1.104-21.676-1.829c-7.858-0.79-15.703-1.729-23.542-2.7
	c-8.017-0.992-16.027-2.04-24.024-3.18c-6.293-0.896-12.561-1.971-19.238-3.028c0,1.227,0,2.24,0,3.254
	c0,25.62-0.002,51.238,0.01,76.858c0.001,0.934,0.148,1.869,0.228,2.804c-68.256,0-136.513,0-204.769,0
	c-0.325-4.223-0.726-8.439-0.962-12.667c-0.799-14.316-1.603-28.634-2.283-42.957c-0.645-13.577-1.203-27.16-1.679-40.745
	c-0.641-18.31-1.242-36.623-1.72-54.938c-0.461-17.661-1.007-35.326-1.046-52.99c-0.069-31.09,0.128-62.182,0.386-93.271
	c0.189-22.827,1.166-45.618,4-68.3c1.175-9.404,3.082-18.5,8.66-26.47c14.367-20.534,28.668-41.114,43.003-61.671
	c1.473-2.113,2.99-4.195,4.63-6.494c-1.368-0.294-2.277-0.594-3.206-0.673c-12.855-1.104-24.762-5.231-35.993-11.404
	c-9.11-5.007-17.355-11.079-22.744-20.257c-2.782-4.738-4.166-9.809-3.015-15.401c1.529-7.425,6.262-12.559,12.028-16.863
	c15.096-11.268,32.106-15.469,50.793-13.731c11.488,1.069,22.417,3.931,32.345,9.78c4.88,2.875,9.195,6.707,13.853,10.169
	c0.519-0.659,1.336-1.69,2.147-2.726c13.949-17.828,27.753-35.772,41.886-53.454c14.55-18.204,29.145-36.385,44.242-54.133
	c10.758-12.647,22.263-24.671,33.713-36.708c2.2-2.313,5.529-4.297,8.629-4.877c12.07-2.26,24.215-4.274,36.414-5.661
	c13.842-1.573,27.765-2.48,41.667-3.481c12.509-0.901,25.033-1.621,37.558-2.272c16.21-0.843,32.426-1.605,48.644-2.279
	c15.566-0.648,31.137-1.223,46.709-1.679c22.378-0.656,44.758-1.312,67.141-1.714c22.298-0.4,44.602-0.466,66.901-0.734
	c3.472-0.042,6.94-0.376,10.41-0.576c23.634,0,47.269,0,70.903,0c0.919,0.139,1.836,0.385,2.758,0.401
	c15.965,0.292,31.935,0.454,47.897,0.854c17.652,0.441,35.307,0.915,52.946,1.707c15.442,0.694,30.891,1.558,46.288,2.895
	c12.433,1.079,24.81,2.869,37.185,4.541c9.265,1.251,17.179,5.176,23.327,12.458c7.671,9.085,15.813,17.791,23.167,27.122
	c24.345,30.89,46.685,63.233,68.623,95.856c3.716,5.527,7.398,11.077,11.078,16.586c0.539-0.178,0.828-0.218,1.057-0.357
	c17.438-10.542,36.252-14.268,56.34-11.006c13.324,2.164,25.15,7.711,34.952,17.112c4.769,4.572,7.955,10.105,7.722,16.974
	c-0.253,7.485-3.977,13.468-9.016,18.628c-10.968,11.234-24.653,17.677-39.553,21.83c-3.103,0.865-6.284,1.444-9.734,2.224
	c0.707,1.259,1.243,2.226,1.789,3.187c10.416,18.33,21.037,36.547,31.123,55.056c3.011,5.527,5.58,11.712,6.502,17.873
	c2.169,14.492,3.707,29.122,4.596,43.75c0.962,15.83,1.316,31.727,1.195,47.588c-0.277,36.28-0.912,72.558-1.591,108.833
	c-0.339,18.127-1.08,36.248-1.664,54.37c-0.575,17.836-1.172,35.672-1.778,53.507c-0.167,4.906-0.401,9.81-0.612,14.714
	c-0.735,17.069-1.654,34.133-2.094,51.209C1136.954,713.05,1136.414,717.03,1131.989,719.567z M1014.991,244.363
	c-0.691-1.638-1.106-2.773-1.636-3.853c-16.299-33.258-32.323-66.654-49.046-99.698c-7.55-14.919-16.494-29.134-24.801-43.671
	c-1.397-2.446-3.521-3.966-6.219-4.504c-7.808-1.558-15.581-3.51-23.471-4.38c-13.851-1.529-27.766-2.55-41.676-3.443
	c-12.716-0.816-25.457-1.265-38.193-1.724c-13.218-0.477-26.439-0.917-39.664-1.117c-29.106-0.441-58.214-0.872-87.321-1.021
	c-24.479-0.126-48.96,0.05-73.438,0.273c-33.077,0.301-66.154,0.671-99.229,1.209c-24.845,0.405-49.687,1.057-74.526,1.724
	c-16.142,0.433-32.287,0.903-48.415,1.693c-19.209,0.941-38.394,2.4-57.604,3.318c-8.751,0.418-15.888,3.805-22.307,9.522
	c-13.133,11.698-23.902,25.448-34.444,39.378c-20.778,27.456-39.5,56.316-57.812,85.446c-4.251,6.764-8.349,13.624-12.566,20.519
	c0.637,0.343,1.025,0.699,1.458,0.765c15.216,2.325,30.401,4.896,45.667,6.837c12.133,1.543,24.353,2.462,36.555,3.385
	c12.601,0.953,25.222,1.691,37.844,2.314c14.05,0.694,28.109,1.268,42.17,1.685c17,0.504,34.006,0.991,51.012,1.125
	c28.259,0.221,56.521,0.183,84.781,0.197c17.015,0.009,34.034,0.11,51.045-0.183c34.012-0.585,68.02-1.42,102.028-2.137
	c11.337-0.238,22.674-0.398,34.01-0.65c7.461-0.166,14.922-0.39,22.381-0.66c19.063-0.69,38.127-1.417,57.189-2.135
	c14.531-0.547,29.063-1.079,43.593-1.66c18.678-0.747,37.354-1.551,56.032-2.303c10.754-0.433,21.511-0.798,32.265-1.224
	c4.244-0.167,8.485-0.4,12.727-0.626c13.191-0.703,26.381-1.446,39.573-2.118c9.049-0.461,18.104-0.792,27.151-1.257
	C1004.895,245.142,1009.675,244.734,1014.991,244.363z M824.331,460.716c1.478,0.49,2.073,0.737,2.692,0.886
	c21.353,5.114,42.824,9.64,64.685,11.943c12.917,1.361,25.868,2.641,38.836,3.235c14.611,0.669,29.208-0.188,43.755-2.044
	c15.236-1.942,30.085-5.303,44.418-10.842c21.363-8.256,39.696-20.756,53.796-38.995c11.96-15.474,19.249-33.055,22.612-52.252
	c0.88-5.018,1.068-10.157,1.644-15.929c-1.367,0.756-1.942,1.036-2.479,1.378c-16.253,10.345-33.495,18.697-51.574,25.293
	c-24.093,8.791-48.825,14.268-74.641,13.951c-3.295-0.041-6.611,0.2-9.889,0.569c-13.569,1.531-26.765,4.702-39.622,9.293
	c-28.49,10.172-54.466,25.048-79.129,42.36C834.52,453.013,829.767,456.692,824.331,460.716z M139.785,357.689
	c0,1.666-0.209,3.651,0.042,5.577c0.617,4.74,1.225,9.501,2.226,14.17c7.294,34.041,26.054,59.875,56.144,77.303
	c24.532,14.21,51.548,19.831,79.469,21.503c11.376,0.682,22.856,0.644,34.236,0.005c14.45-0.813,28.958-1.859,43.238-4.094
	c18.225-2.854,36.25-6.991,54.355-10.604c0.551-0.109,1.037-0.547,1.735-0.931c-0.784-0.704-1.307-1.238-1.894-1.689
	c-22.111-16.985-45.612-31.711-71.001-43.306c-24.688-11.276-50.265-18.689-77.759-18.5c-8.231,0.056-16.552-0.972-24.696-2.319
	c-21.301-3.523-41.783-9.987-61.3-19.189C162.861,370.091,151.519,363.769,139.785,357.689z M616.236,493.131
	c20.691-21.564,34.204-46.495,45.843-72.775c-0.763-0.426-1.222-0.754-1.731-0.956c-18.068-7.185-36.607-11.416-56.18-8.494
	c-7.955,1.187-15.58,3.545-22.328,8.095c-0.877,0.592-1.697,2.071-1.638,3.087c0.135,2.314,0.721,4.625,1.32,6.886
	c3.139,11.842,8.847,22.552,15.073,32.958C602.773,472.256,609.399,482.312,616.236,493.131z"/>
</svg>
